# xmcd
#
# Track frame offsets: 
#        150
#        19112
#        44755
#        59066
#        75067
#        104431
#        123110
#        142114
#        152015
#        172975
#        183987
#        199010
#        219737
#        240821
#        262177
#        280830
#        294913
#        312855
#        329139
#        340767
#
# Disc length: 4777 seconds
#
# Revision: 1
# Processed by: cddbd v1.5.2PL0 Copyright (c) Steve Scherf et al.
# Submitted via: ExactAudioCopyFreeDBPlugin 1.0
#
DISCID=2512a714
DTITLE=Korner, Alexis - Every Day I Have The Blues: The Sixties Anthol
DTITLE=ogy (3)
DYEAR=2018
DGENRE=Blues
TTITLE0=Yellow Dog Blues
TTITLE1=The Love You Save
TTITLE2=Corina, Corina
TTITLE3=Mary Open The Door
TTITLE4=Little Bitty Girl
TTITLE5=Go Down Sunshine
TTITLE6=The Same For You
TTITLE7=I'm Tore Down
TTITLE8=In The Evening
TTITLE9=Somethin' You Got
TTITLE10=What's That Sound I Hear
TTITLE11=I Wonder Who BBC SESSION
TTITLE12=Operator WITH ROBERT PLANT and STEVE MILLER
TTITLE13=Steal AwayWITH ROBERT PLANT and STEVE MILLER
TTITLE14=Mighty Mighty (Spade And Whitey)
TTITLE15=Funky
TTITLE16=Wild Injun Woman
TTITLE17=To Whom It May Concern
TTITLE18=I See It
TTITLE19=You Don't Miss Your Water
EXTD=
EXTT0=
EXTT1=
EXTT2=
EXTT3=
EXTT4=
EXTT5=
EXTT6=
EXTT7=
EXTT8=
EXTT9=
EXTT10=
EXTT11=
EXTT12=
EXTT13=
EXTT14=
EXTT15=
EXTT16=
EXTT17=
EXTT18=
EXTT19=
PLAYORDER=
